<?xml version="1.0" encoding="UTF-8" standalone="no"?>
<!DOCTYPE svg PUBLIC "-//W3C//DTD SVG 1.1//EN"
 "http://www.w3.org/Graphics/SVG/1.1/DTD/svg11.dtd">
<!-- Generated by graphviz version 2.40.1 (20161225.0304)
 -->
<!-- Title: IMBFlowchart Pages: 1 -->
<svg width="250pt" height="554pt"
 viewBox="0.00 0.00 250.00 554.00" xmlns="http://www.w3.org/2000/svg" xmlns:xlink="http://www.w3.org/1999/xlink">
<g id="graph0" class="graph" transform="scale(1 1) rotate(0) translate(4 550)">
<title>IMBFlowchart</title>
<polygon fill="#ffffff" stroke="transparent" points="-4,4 -4,-550 246,-550 246,4 -4,4"/>
<g id="clust1" class="cluster">
<title>cluster_imb</title>
<polygon fill="none" stroke="#000000" stroke-dasharray="5,2" points="14,-136 14,-358 215,-358 215,-136 14,-136"/>
<text text-anchor="middle" x="114.5" y="-342.8" font-family="Times,serif" font-size="14.00" fill="#000000">Image processing modular blocks</text>
</g>
<g id="clust2" class="cluster">
<title>cluster_processor</title>
<polygon fill="none" stroke="#000000" stroke-dasharray="5,2" points="70,-208 70,-283 158,-283 158,-208 70,-208"/>
<text text-anchor="middle" x="114" y="-267.8" font-family="Times,serif" font-size="14.00" fill="#000000">Processor</text>
</g>
<!-- start -->
<g id="node1" class="node">
<title>start</title>
<ellipse fill="none" stroke="#000000" cx="114" cy="-528" rx="42.4939" ry="18"/>
<text text-anchor="middle" x="114" y="-524.3" font-family="Times,serif" font-size="14.00" fill="#000000"> &#160;&#160;Start &#160;&#160;</text>
</g>
<!-- command_line_arguments -->
<g id="node3" class="node">
<title>command_line_arguments</title>
<polygon fill="none" stroke="#c0c0c0" stroke-dasharray="5,2" points="193.5,-474 34.5,-474 34.5,-438 193.5,-438 193.5,-474"/>
<text text-anchor="middle" x="114" y="-452.3" font-family="Times,serif" font-size="14.00" fill="#000000">Command line arguments</text>
</g>
<!-- start&#45;&gt;command_line_arguments -->
<g id="edge1" class="edge">
<title>start&#45;&gt;command_line_arguments</title>
<path fill="none" stroke="#000000" d="M114,-509.8314C114,-502.131 114,-492.9743 114,-484.4166"/>
<polygon fill="#000000" stroke="#000000" points="117.5001,-484.4132 114,-474.4133 110.5001,-484.4133 117.5001,-484.4132"/>
</g>
<!-- end -->
<g id="node2" class="node">
<title>end</title>
<ellipse fill="none" stroke="#000000" cx="49" cy="-18" rx="44.393" ry="18"/>
<text text-anchor="middle" x="49" y="-14.3" font-family="Times,serif" font-size="14.00" fill="#000000"> &#160;&#160;&#160;End &#160;&#160;&#160;</text>
</g>
<!-- file_operations_input -->
<g id="node4" class="node">
<title>file_operations_input</title>
<polygon fill="none" stroke="#00ff00" stroke-dasharray="5,2" points="163,-402 65,-402 65,-366 163,-366 163,-402"/>
<text text-anchor="middle" x="114" y="-380.3" font-family="Times,serif" font-size="14.00" fill="#000000">File operations</text>
</g>
<!-- command_line_arguments&#45;&gt;file_operations_input -->
<g id="edge2" class="edge">
<title>command_line_arguments&#45;&gt;file_operations_input</title>
<path fill="none" stroke="#000000" d="M114,-437.8314C114,-430.131 114,-420.9743 114,-412.4166"/>
<polygon fill="#000000" stroke="#000000" points="117.5001,-412.4132 114,-402.4133 110.5001,-412.4133 117.5001,-412.4132"/>
</g>
<!-- input -->
<g id="node7" class="node">
<title>input</title>
<polygon fill="none" stroke="#000000" points="114,-327 72.7754,-309 114,-291 155.2246,-309 114,-327"/>
<text text-anchor="middle" x="114" y="-305.3" font-family="Times,serif" font-size="14.00" fill="#000000">Input</text>
</g>
<!-- file_operations_input&#45;&gt;input -->
<g id="edge3" class="edge">
<title>file_operations_input&#45;&gt;input</title>
<path fill="none" stroke="#000000" d="M114,-365.8446C114,-357.3401 114,-347.0076 114,-337.4964"/>
<polygon fill="#000000" stroke="#000000" points="117.5001,-337.2481 114,-327.2482 110.5001,-337.2482 117.5001,-337.2481"/>
</g>
<!-- file_operations_output -->
<g id="node5" class="node">
<title>file_operations_output</title>
<polygon fill="none" stroke="#ff0000" stroke-dasharray="5,2" points="98,-108 0,-108 0,-72 98,-72 98,-108"/>
<text text-anchor="middle" x="49" y="-86.3" font-family="Times,serif" font-size="14.00" fill="#000000">File operations</text>
</g>
<!-- file_operations_output&#45;&gt;end -->
<g id="edge8" class="edge">
<title>file_operations_output&#45;&gt;end</title>
<path fill="none" stroke="#000000" d="M49,-71.8314C49,-64.131 49,-54.9743 49,-46.4166"/>
<polygon fill="#000000" stroke="#000000" points="52.5001,-46.4132 49,-36.4133 45.5001,-46.4133 52.5001,-46.4132"/>
</g>
<!-- display -->
<g id="node6" class="node">
<title>display</title>
<polygon fill="none" stroke="#0000ff" stroke-dasharray="5,2" points="242,-108 116,-108 116,-72 242,-72 242,-108"/>
<text text-anchor="middle" x="179" y="-86.3" font-family="Times,serif" font-size="14.00" fill="#000000">Display comparison</text>
</g>
<!-- filter_c64 -->
<g id="node9" class="node">
<title>filter_c64</title>
<polygon fill="none" stroke="#000000" points="150,-252 78,-252 78,-216 150,-216 150,-252"/>
<text text-anchor="middle" x="114" y="-230.3" font-family="Times,serif" font-size="14.00" fill="#000000">Filter C64</text>
</g>
<!-- input&#45;&gt;filter_c64 -->
<g id="edge4" class="edge">
<title>input&#45;&gt;filter_c64</title>
<path fill="none" stroke="#000000" d="M114,-290.8446C114,-282.3401 114,-272.0076 114,-262.4964"/>
<polygon fill="#000000" stroke="#000000" points="117.5001,-262.2481 114,-252.2482 110.5001,-262.2482 117.5001,-262.2481"/>
</g>
<!-- output -->
<g id="node8" class="node">
<title>output</title>
<polygon fill="none" stroke="#000000" points="114,-180 64.2307,-162 114,-144 163.7693,-162 114,-180"/>
<text text-anchor="middle" x="114" y="-158.3" font-family="Times,serif" font-size="14.00" fill="#000000">Output</text>
</g>
<!-- output&#45;&gt;file_operations_output -->
<g id="edge7" class="edge">
<title>output&#45;&gt;file_operations_output</title>
<path fill="none" stroke="#000000" d="M101.4673,-148.1177C93.2147,-138.9763 82.1576,-126.7284 72.322,-115.8337"/>
<polygon fill="#000000" stroke="#000000" points="74.7327,-113.2809 65.4337,-108.2035 69.5369,-117.9716 74.7327,-113.2809"/>
</g>
<!-- output&#45;&gt;display -->
<g id="edge6" class="edge">
<title>output&#45;&gt;display</title>
<path fill="none" stroke="#000000" d="M126.5327,-148.1177C134.7853,-138.9763 145.8424,-126.7284 155.678,-115.8337"/>
<polygon fill="#000000" stroke="#000000" points="158.4631,-117.9716 162.5663,-108.2035 153.2673,-113.2809 158.4631,-117.9716"/>
</g>
<!-- filter_c64&#45;&gt;output -->
<g id="edge5" class="edge">
<title>filter_c64&#45;&gt;output</title>
<path fill="none" stroke="#000000" d="M114,-215.8314C114,-208.131 114,-198.9743 114,-190.4166"/>
<polygon fill="#000000" stroke="#000000" points="117.5001,-190.4132 114,-180.4133 110.5001,-190.4133 117.5001,-190.4132"/>
</g>
</g>
</svg>
