<?xml version="1.0" encoding="UTF-8" standalone="no"?>
<!DOCTYPE svg PUBLIC "-//W3C//DTD SVG 1.1//EN"
 "http://www.w3.org/Graphics/SVG/1.1/DTD/svg11.dtd">
<!-- Generated by graphviz version 2.40.1 (20161225.0304)
 -->
<!-- Title: IMBLogo Pages: 1 -->
<svg width="116pt" height="55pt"
 viewBox="0.00 0.00 116.00 55.11" xmlns="http://www.w3.org/2000/svg" xmlns:xlink="http://www.w3.org/1999/xlink">
<g id="graph0" class="graph" transform="scale(1 1) rotate(0) translate(4 51.1123)">
<title>IMBLogo</title>
<polygon fill="#ffffff" stroke="transparent" points="-4,4 -4,-51.1123 112,-51.1123 112,4 -4,4"/>
<!-- imb -->
<g id="node1" class="node">
<title>imb</title>
<polygon fill="none" stroke="#000000" points="54,-41.625 0,-41.625 0,-5.625 54,-5.625 54,-41.625"/>
<text text-anchor="middle" x="27" y="-19.925" font-family="Times,serif" font-size="14.00" fill="#000000">IMB</text>
</g>
<!-- imb&#45;&gt;imb -->
<g id="edge1" class="edge">
<title>imb&#45;&gt;imb</title>
<path fill="none" stroke="#ff0000" stroke-dasharray="5,2" d="M54.2408,-26.9967C64.0239,-27.0692 72,-25.9453 72,-23.625 72,-22.2111 69.0382,-21.2414 64.5105,-20.716"/>
<polygon fill="#ff0000" stroke="#ff0000" points="64.3882,-17.207 54.2408,-20.2533 64.0731,-24.1999 64.3882,-17.207"/>
</g>
<!-- imb&#45;&gt;imb -->
<g id="edge2" class="edge">
<title>imb:s&#45;&gt;imb:n</title>
<path fill="none" stroke="#00ff00" d="M27,-5.625C42,3.375 72,3.375 72,-23.625 72,-45.7734 51.8126,-49.7532 36.2778,-45.5004"/>
<polygon fill="#00ff00" stroke="#00ff00" points="37.5764,-42.2498 27,-41.625 34.8784,-48.7089 37.5764,-42.2498"/>
</g>
<!-- imb&#45;&gt;imb -->
<g id="edge3" class="edge">
<title>imb&#45;&gt;imb</title>
<path fill="none" stroke="#0000ff" d="M54.1975,-29.7801C72.3402,-31.5126 90,-29.4609 90,-23.625 90,-18.8833 78.3418,-16.6398 64.2386,-16.8945"/>
<polygon fill="#0000ff" stroke="#0000ff" points="63.9809,-13.4034 54.1975,-17.4699 64.3814,-20.3919 63.9809,-13.4034"/>
</g>
</g>
</svg>
